# xmcd
#
# Track frame offsets: 
#        150
#        4851
#        19579
#        31968
#        45857
#        57495
#        73827
#        83551
#        95906
#        110091
#        116578
#        126811
#        139958
#        150197
#
# Disc length: 2064 seconds
#
# Revision: 0
# Processed by: cddbd v1.5.2PL0 Copyright (c) Steve Scherf et al.
# Submitted via: ExactAudioCopy v1.0b1
#
DISCID=b4080e0e
DTITLE=Victor T Deluxe - The Suitcase
DYEAR=2014
DGENRE=Blues Rock
TTITLE0=Little Piggy
TTITLE1=I Drive
TTITLE2=Bourbon Man
TTITLE3=The Cook
TTITLE4=Carolina
TTITLE5=Mama Tell Me
TTITLE6=It's Sunday
TTITLE7=Black Rooster
TTITLE8=My Old Woman
TTITLE9=No Gin Girl
TTITLE10=The Suitcase
TTITLE11=My Baby Rock
TTITLE12=Peggy Sue
TTITLE13=The End
EXTD=
EXTT0=
EXTT1=
EXTT2=
EXTT3=
EXTT4=
EXTT5=
EXTT6=
EXTT7=
EXTT8=
EXTT9=
EXTT10=
EXTT11=
EXTT12=
EXTT13=
PLAYORDER=
